# xmcd
#
# Track frame offsets: 
#        150
#        30643
#        53371
#        68499
#        79064
#        109707
#        123847
#        141453
#        157534
#        170124
#        194154
#        225076
#        240384
#        268253
#        281378
#        307787
#        322247
#        332641
#
# Disc length: 4646 seconds
#
# Revision: 2
# Processed by: cddbd v1.5.2PL0 Copyright (c) Steve Scherf et al.
# Submitted via: ExactAudioCopy v0.95a5
#
DISCID=eb122412
DTITLE=Various Artist - Antologia Polskiego Bluesa
DYEAR=2008
DGENRE=Blues
TTITLE0=Schau Pau Acoustic Blues - Whiskey And Wimmen
TTITLE1=Tipsy Drivers - I Wish You Would
TTITLE2=McMahon and Kaminski - My Girl
TTITLE3=Easy Rider - Cottonfields Back Home
TTITLE4=J.J. Band - Roxanne
TTITLE5=Terraplane - Don't You Lie To Me
TTITLE6=Tortilla Flat - Sloppy Drunk
TTITLE7=Mietek Blues Band - Key To The Highway
TTITLE8=Jacek Spruch and The Old Time Band - Alabama Jubilee
TTITLE9=Devil Blues - You Don't Have To Go
TTITLE10=Magda Piskorczyk - Muddy Water Blues
TTITLE11=Teenage Beat - I had May Fun
TTITLE12=Tadeusz Pocieszynski and The Bluesmobile Band - Got My Mojo Wor
TTITLE12=king
TTITLE13=Romek Puchowski - Preaching Blues ( Up Jumped The Devil )
TTITLE14=Wielka Lodz - Some Thing
TTITLE15=The Cooks - You Can't Judge A Book By It's Cover
TTITLE16=Los Agentos - Tush
TTITLE17=Boogie Chilli - Who Do You Love?
EXTD=
EXTT0=
EXTT1=
EXTT2=
EXTT3=
EXTT4=
EXTT5=
EXTT6=
EXTT7=
EXTT8=
EXTT9=
EXTT10=
EXTT11=
EXTT12=
EXTT13=
EXTT14=
EXTT15=
EXTT16=
EXTT17=
PLAYORDER=
